<svg width="320" height="112" viewBox="0 0 320 112" fill="none" xmlns="http://www.w3.org/2000/svg" role="img" aria-label="SEMAPA somos vida">
  <rect width="320" height="112" rx="12" fill="white"/>
  <circle cx="51" cy="49" r="39" fill="#20B8C7"/>
  <path d="M47 17C38 33 27 49 29 65C31 78 42 87 55 86C68 85 78 75 79 62C70 75 55 75 48 66C40 56 45 39 47 17Z" fill="white"/>
  <path d="M95 35C106 26 123 28 131 39L119 48C116 43 109 42 105 46C101 49 102 55 108 56L118 58C131 61 137 70 134 82C131 96 114 102 99 96C91 93 85 88 81 80L94 72C98 79 104 83 112 83C118 83 122 80 123 76C124 71 120 69 114 68L104 66C91 63 85 54 88 43C89 40 92 37 95 35Z" fill="#20B8C7"/>
  <path d="M153 97C139 97 129 87 129 73C129 58 139 48 153 48C167 48 176 58 176 72C176 74 176 77 175 79H144C146 84 150 87 156 87C161 87 165 85 168 81L177 90C171 95 164 97 153 97ZM144 69H162C161 63 158 60 153 60C148 60 145 63 144 69Z" fill="#20B8C7"/>
  <path d="M183 49H197V55C200 50 205 48 211 48C218 48 223 51 226 57C230 51 236 48 243 48C255 48 262 56 262 70V96H248V72C248 65 245 61 239 61C233 61 230 66 230 73V96H216V72C216 65 213 61 207 61C201 61 197 66 197 73V96H183V49Z" fill="#20B8C7"/>
  <path d="M288 97C274 97 264 87 264 73C264 58 274 48 288 48C302 48 312 58 312 73C312 87 302 97 288 97ZM288 84C294 84 298 80 298 73C298 66 294 61 288 61C282 61 278 66 278 73C278 80 282 84 288 84Z" fill="#20B8C7"/>
  <text x="171" y="108" text-anchor="middle" font-family="Arial, Helvetica, sans-serif" font-size="16" font-weight="700" fill="#6C4C8F">somos vida</text>
</svg>
